<svg width="1938" height="703" xmlns="http://www.w3.org/2000/svg" xmlns:xlink="http://www.w3.org/1999/xlink" overflow="hidden"><defs><clipPath id="clip0"><rect x="1192" y="741" width="1938" height="703"/></clipPath></defs><g clip-path="url(#clip0)" transform="translate(-1192 -741)"><path d="M1225.51 973.489 1488.51 973.489 1488.51 1236.49 1225.51 1236.49Z" stroke="#000000" stroke-width="2.63235" stroke-miterlimit="8" stroke-opacity="0.8" fill="#A0A0A0" fill-rule="evenodd" fill-opacity="0.8"/><path d="M1246.51 994.489 1509.51 994.489 1509.51 1257.49 1246.51 1257.49Z" stroke="#000000" stroke-width="2.63235" stroke-miterlimit="8" stroke-opacity="0.8" fill="#E0E0E0" fill-rule="evenodd" fill-opacity="0.8"/><path d="M1267.52 1015.49 1530.52 1015.49 1530.52 1278.49 1267.52 1278.49Z" stroke="#000000" stroke-width="2.63235" stroke-miterlimit="8" stroke-opacity="0.8" fill="#A0A0A0" fill-rule="evenodd" fill-opacity="0.8"/><path d="M1662.52 973.489 1925.52 973.489 1925.52 1236.49 1662.52 1236.49Z" stroke="#000000" stroke-width="2.63235" stroke-miterlimit="8" stroke-opacity="0.8" fill="#A0A0A0" fill-rule="evenodd" fill-opacity="0.8"/><path d="M1683.52 994.489 1946.52 994.489 1946.52 1257.49 1683.52 1257.49Z" stroke="#000000" stroke-width="2.63235" stroke-miterlimit="8" stroke-opacity="0.8" fill="#E0E0E0" fill-rule="evenodd" fill-opacity="0.8"/><path d="M1704.52 1015.49 1967.52 1015.49 1967.52 1278.49 1704.52 1278.49Z" stroke="#000000" stroke-width="2.63235" stroke-miterlimit="8" stroke-opacity="0.8" fill="#A0A0A0" fill-rule="evenodd" fill-opacity="0.8"/><path d="M1371.51 1156.49 1379.52 1156.49 1379.52 1164.49 1371.51 1164.49Z" stroke="#000000" stroke-width="2.63235" stroke-miterlimit="8" stroke-opacity="0.8" fill="#000000" fill-rule="evenodd" fill-opacity="0"/><path d="M1379.52 1164.49 1812.52 1161.49" stroke="#000000" stroke-width="1.31617" stroke-miterlimit="8" stroke-opacity="0.8" fill="none" fill-rule="evenodd"/><path d="M1379.52 1156.49 1812.52 1161.49" stroke="#000000" stroke-width="1.31617" stroke-miterlimit="8" stroke-opacity="0.8" fill="none" fill-rule="evenodd"/><path d="M1998.53 846.489 2024.87 846.489 2583.53 1405.49 2557.2 1405.49Z" stroke="#000000" stroke-width="2.63235" stroke-miterlimit="8" stroke-opacity="0.8" fill="#E0E0E0" fill-rule="evenodd" fill-opacity="0.8"/><path d="M2588.54 1107.49 2615.05 1107.49 2652.54 1144.49 2626.03 1144.49Z" stroke="#000000" stroke-width="2.63235" stroke-miterlimit="8" stroke-opacity="0.8" fill="#E0E0E0" fill-rule="evenodd" fill-opacity="0.8"/><path d="M2657.54 1107.49 2684.05 1107.49 2721.54 1144.49 2695.03 1144.49Z" stroke="#000000" stroke-width="2.63235" stroke-miterlimit="8" stroke-opacity="0.8" fill="#E0E0E0" fill-rule="evenodd" fill-opacity="0.8"/><path d="M2726.55 940.489 2752.9 940.489 3125.55 1312.49 3099.2 1312.49Z" stroke="#000000" stroke-width="2.63235" stroke-miterlimit="8" stroke-opacity="0.8" fill="#E0E0E0" fill-rule="evenodd" fill-opacity="0.8"/><path d="M1967.53 1278.49 2557.53 1405.49" stroke="#000000" stroke-width="1.31617" stroke-miterlimit="8" stroke-opacity="0.8" fill="none" fill-rule="evenodd"/><path d="M1925.53 973.485 1998.53 846.485" stroke="#000000" stroke-width="1.31617" stroke-miterlimit="8" stroke-opacity="0.8" fill="none" fill-rule="evenodd"/><path d="M2583.54 1405.49 2626.54 1144.49" stroke="#000000" stroke-width="1.31617" stroke-miterlimit="8" stroke-opacity="0.8" fill="none" fill-rule="evenodd"/><path d="M2025.53 846.486 2588.53 1107.49" stroke="#000000" stroke-width="1.31617" stroke-miterlimit="8" stroke-opacity="0.8" fill="none" fill-rule="evenodd"/><path d="M2652.54 1144.49 2695.54 1144.49" stroke="#000000" stroke-width="1.31617" stroke-miterlimit="8" stroke-opacity="0.8" fill="none" fill-rule="evenodd"/><path d="M2615.54 1107.49 2657.54 1107.49" stroke="#000000" stroke-width="1.31617" stroke-miterlimit="8" stroke-opacity="0.8" fill="none" fill-rule="evenodd"/><path d="M2721.55 1144.49 3098.55 1312.49" stroke="#000000" stroke-width="1.31617" stroke-miterlimit="8" stroke-opacity="0.8" fill="none" fill-rule="evenodd"/><path d="M2684.54 1107.49 2726.54 940.487" stroke="#000000" stroke-width="1.31617" stroke-miterlimit="8" stroke-opacity="0.8" fill="none" fill-rule="evenodd"/><text font-family="Arial,Arial_MSFontService,sans-serif" font-weight="400" font-size="42" transform="matrix(1 0 0 1 1508.66 1337)">Max<tspan font-size="42" x="79.6354" y="0">-</tspan>Pool<tspan font-size="42" x="655.57" y="62">Flatten</tspan><tspan font-size="42" x="-284.114" y="-397">3</tspan><tspan font-size="42" x="-260.624" y="-397">@</tspan>100<tspan font-size="42" x="-147.187" y="-397">x</tspan><tspan font-size="42" x="-125.989" y="-397">100</tspan><tspan font-size="42" x="152.87" y="-397">3</tspan><tspan font-size="42" x="176.36" y="-397">@</tspan><tspan font-size="42" x="219.328" y="-397">100</tspan>x<tspan font-size="42" x="310.995" y="-397">100</tspan><tspan font-size="42" x="489.822" y="-524">1x300</tspan></text><text font-family="Arial,Arial_MSFontService,sans-serif" font-weight="400" font-size="42" transform="matrix(0.657758 0.753229 -0.753229 0.657758 2562.66 989)">1<tspan font-size="42" x="22.9676" y="-0.455821">x</tspan><tspan font-size="42" x="44.1904" y="-0.434042">2,000</tspan></text><text font-family="Arial,Arial_MSFontService,sans-serif" font-weight="400" font-size="42" transform="matrix(1 0 0 1 2726.13 907)">1x200</text><text font-family="Arial,Arial_MSFontService,sans-serif" font-weight="400" font-size="42" transform="matrix(0.657758 0.753229 -0.753229 0.657758 2491.4 989)">1x2,000</text></g></svg>